<?xml version="1.0" encoding="utf-8"?>
<!-- Generator: Adobe Illustrator 27.0.0, SVG Export Plug-In . SVG Version: 6.00 Build 0)  -->
<svg version="1.1" id="Layer_2_00000014595809448179682210000017002803928963805833_"
	 xmlns="http://www.w3.org/2000/svg" xmlns:xlink="http://www.w3.org/1999/xlink" x="0px" y="0px" viewBox="0 0 1571.6 575.3"
	 style="enable-background:new 0 0 1571.6 575.3;" xml:space="preserve">
<style type="text/css">
	.st0{fill:#FFFFFF;}
</style>
<g>
	<polygon class="st0" points="492.8,166 515.3,166 550,246 584.7,166 607.3,166 607.3,272.1 586.8,272.1 586.8,205.5 586.1,205.5 
		557.5,272.1 542.4,272.1 514,205.5 513.3,205.5 513.3,272.1 492.8,272.1 	"/>
	<path class="st0" d="M621,232.7V166h20.5v66.7c0,16.6,10.2,21.7,19.6,21.7c9.3,0,19.6-5.1,19.6-21.7V166h20.5v66.7
		c0,26.6-17.8,41-40.1,41C638.8,273.6,621,259.3,621,232.7"/>
	<polygon class="st0" points="714.8,166 735.3,166 784,238.5 784.7,238.5 784.7,166 805.2,166 805.2,272.1 784.7,272.1 736,199.6 
		735.3,199.6 735.3,272.1 714.8,272.1 	"/>
	<rect x="819" y="166" class="st0" width="20.5" height="106.1"/>
	<path class="st0" d="M851.6,219.1c0-33,25-54.6,54.7-54.6c14.5,0,31.8,5.1,43.1,23l-14.9,10.3c-6.9-9.9-17.2-13.9-27.5-13.9
		c-18.8,0-34.4,13.6-34.4,35.1c0,21.7,15.7,35.1,34.5,35.1c10.6,0,20.5-4,27.4-13.9l14.9,10.3c-11.2,17.9-28.6,23-43.1,23
		C876.4,273.6,851.6,252.1,851.6,219.1"/>
	<rect x="960" y="166" class="st0" width="20.5" height="106.1"/>
	<path class="st0" d="M994,166h37.5c23,0,38,14.3,38,36s-15,36-38,36h-17v34.1H994V166z M1029.8,219.2c11.1,0,19-4.8,19-17.2
		c0-12.3-7.9-17.2-19-17.2h-15.2v34.4L1029.8,219.2L1029.8,219.2z"/>
	<path class="st0" d="M1120.4,166l41,106.1h-22.1l-7-19.1H1087l-7,19.1h-22.1l40.8-106.1H1120.4z M1125.3,234.2l-15.7-42.6
		l-15.7,42.6L1125.3,234.2L1125.3,234.2z"/>
	<polygon class="st0" points="1169.1,166 1189.6,166 1189.6,253.3 1231,253.3 1231,272.1 1169.1,272.1 	"/>
	<rect x="1241.6" y="166" class="st0" width="20.5" height="106.1"/>
	<path class="st0" d="M1275.7,166h38.4c29.3,0,51.3,21.8,51.3,53.1c0,31.2-22,53.1-51.3,53.1h-38.4V166z M1313.4,252.8
		c20.2,0,30.7-13.8,30.7-33.8s-10.5-33.8-30.7-33.8h-17.2v67.6L1313.4,252.8L1313.4,252.8z"/>
	<path class="st0" d="M1422.8,166l41,106.1h-22.1l-7-19.1h-45.1l-7,19.1h-22.1l40.8-106.1H1422.8z M1427.7,234.2l-15.7-42.6
		l-15.7,42.6L1427.7,234.2L1427.7,234.2z"/>
	<path class="st0" d="M1471.6,166h38.4c29.3,0,51.3,21.8,51.3,53.1c0,31.2-22,53.1-51.3,53.1h-38.4V166z M1509.2,252.8
		c20.2,0,30.7-13.8,30.7-33.8s-10.5-33.8-30.7-33.8H1492v67.6L1509.2,252.8L1509.2,252.8z"/>
	<path class="st0" d="M492.8,313.2h38.4c29.3,0,51.3,21.8,51.3,53.1c0,31.2-22,53.1-51.3,53.1h-38.4L492.8,313.2L492.8,313.2z
		 M530.4,400.1c20.2,0,30.6-13.7,30.6-33.8s-10.5-33.8-30.6-33.8h-17.2v67.6L530.4,400.1L530.4,400.1z"/>
	<polygon class="st0" points="593.1,313.2 653.2,313.2 653.2,332 613.6,332 613.6,356.7 646.9,356.7 646.9,375.3 613.6,375.3 
		613.6,400.5 654.5,400.5 654.5,419.4 593.1,419.4 	"/>
	<polygon class="st0" points="695.2,313.2 755.3,313.2 755.3,332 715.7,332 715.7,356.7 749,356.7 749,375.3 715.7,375.3 
		715.7,400.5 756.6,400.5 756.6,419.4 695.2,419.4 	"/>
	<path class="st0" d="M764.3,394.4l16.6-7.6c3,8.2,9.7,15.5,20.5,15.5c8.4,0,15.5-4.3,15.5-13.6c0-7.8-4.6-11.2-15.4-15.5l-6.7-2.5
		c-14.5-5.8-26.5-13.9-26.5-30.1c0-17.8,14.8-28.9,32.7-28.9c18.2,0,29.3,11.2,34.1,22.4l-15.2,8.5c-4.5-8.5-10.3-12.7-18.1-12.7
		c-7.6,0-13.3,3.7-13.3,10.8c0,5.5,3.1,9.9,14.8,14.4l7.2,2.8c18.5,7.5,27.8,15.8,27.8,30.9c0,21.5-18.8,32-36.6,32
		C783.1,420.8,768,409.9,764.3,394.4"/>
	<path class="st0" d="M845.9,366.3c0-33,25-54.6,54.7-54.6c14.5,0,31.8,5.1,43.1,23L928.8,345c-6.9-9.9-17.2-13.9-27.5-13.9
		c-18.8,0-34.4,13.6-34.4,35.1c0,21.7,15.7,35.1,34.5,35.1c10.6,0,20.5-4,27.4-13.9l14.9,10.3c-11.2,17.9-28.6,23-43.1,23
		C870.7,420.8,845.9,399.3,845.9,366.3"/>
	<path class="st0" d="M1007.8,313.2l41,106.1h-22.1l-7-19.1h-45.1l-7,19.1h-22.1l40.8-106.1H1007.8z M1012.7,381.4L997,338.8
		l-15.7,42.6H1012.7z"/>
	<polygon class="st0" points="1102.1,332 1053.5,332 1053.5,313.2 1134,313.2 1083,400.5 1132.5,400.5 1132.5,419.4 1051.3,419.4 	
		"/>
	<path class="st0" d="M1143.2,379.9v-66.7h20.5v66.7c0,16.6,10.2,21.7,19.6,21.7c9.3,0,19.6-5.1,19.6-21.7v-66.7h20.5v66.7
		c0,26.6-17.8,41-40.1,41C1161,420.8,1143.2,406.5,1143.2,379.9 M1191.1,280.3h16.1l-15.4,23.5h-15.7L1191.1,280.3z"/>
	<path class="st0" d="M231.7,556.2c-2.6,0-4.6-2.1-4.6-4.6c0-6.6-5.3-11.9-11.9-11.9c-6.6,0-11.9,5.3-11.9,11.9
		c0,2.6-2.1,4.6-4.6,4.6c-2.6,0-4.6-2.1-4.6-4.6c0-11.7,9.5-21.2,21.2-21.2s21.2,9.5,21.2,21.2C236.3,554.2,234.3,556.2,231.7,556.2
		"/>
	<path class="st0" d="M158.9,544.3c-1.9,0-3.7-1.2-4.4-3c-0.9-2.4,0.4-5.1,2.8-5.9l15.2-5.5l-6.7-20.1c-0.5-1.6-0.2-3.3,0.9-4.5
		c1.1-1.2,2.8-1.8,4.4-1.4l18.3,3.9l3.3-20.2c0.3-1.7,1.5-3.1,3.2-3.7c1.7-0.5,3.5-0.1,4.7,1.2l14.4,14.8l14.5-14.5
		c1.2-1.3,3.1-1.7,4.8-1.1s2.9,2,3.1,3.8l2.8,22.1l19.7-3.8c1.6-0.3,3.3,0.3,4.4,1.5c1.1,1.3,1.4,3,0.9,4.6l-6.2,17.7l17,3.1
		c2.5,0.5,4.2,2.9,3.7,5.4c-0.4,2.5-2.9,4.2-5.4,3.7l-22.4-4c-1.3-0.2-2.5-1.1-3.2-2.2c-0.7-1.2-0.8-2.6-0.4-3.9l5.3-15.3l-16.6,3.2
		c-1.3,0.2-2.6,0-3.6-0.8c-1-0.7-1.7-1.9-1.9-3.2l-2.3-17.6L218,509.8c-0.9,0.9-2,1.3-3.3,1.4c-1.2,0-2.4-0.5-3.3-1.4l-11-11.8
		l-2.6,15.9c-0.2,1.2-0.9,2.4-2,3.1c-1,0.7-2.3,1-3.6,0.7l-15.1-3.2l5.5,16.7c0.8,2.4-0.5,5-2.8,5.8l-19.4,7.1
		C160,544.2,159.5,544.3,158.9,544.3"/>
	<path class="st0" d="M44.5,398.3c-1.6,0.2-2.2,2.3-1,3.4c4.4,4.3,13.2,13,17.4,17.9C66.3,426,67.6,395.7,44.5,398.3"/>
	<path class="st0" d="M19.7,391.9c-2.4,0-4.4-1.8-4.6-4.2c-0.2-2.5,1.6-4.8,4.2-5c48.8-4.5,73.4-49.9,75.7-56.8
		c-0.9-2.4-2.2-4-3.6-4.4c-1.8-0.5-4.7,1-7.9,4c-21.9,21-56.4,33-57.8,33.5c-2.4,0.8-5-0.5-5.9-2.9c-0.8-2.4,0.5-5,2.9-5.9
		c0.3-0.1,34-11.8,54.4-31.4c5.8-5.6,11.4-7.7,16.6-6.3c4.8,1.2,8.6,5.4,10.4,11.5c1.3,4.3-4.7,14.2-8.4,19.7
		c-8.8,13.2-33.9,44.3-75.6,48.1C20,391.8,19.8,391.9,19.7,391.9"/>
	<path class="st0" d="M91,502.8c-1,0-2.1,0-3.1-0.1c-2.5-0.2-4.5-2.4-4.3-4.9c0.2-2.6,2.4-4.5,4.9-4.3c15.9,1,24.1-7.6,28.2-15.1
		c5.3-9.6,5.2-20.2,3.4-22.7c-1.4-2-5.8-5.3-10.4-8.8c-13.3-10.1-31.5-23.9-31.5-42.1c0-19.5-15.7-29.2-16.4-29.6
		c-2.2-1.3-2.9-4.2-1.6-6.3c1.3-2.2,4.1-2.9,6.3-1.6c0.9,0.5,20.9,12.7,20.9,37.5c0,13.6,16.1,25.8,27.8,34.7
		c5.6,4.3,10,7.6,12.3,10.7c4.7,6.6,3.5,21.2-2.8,32.6C120.6,490.4,110.7,502.8,91,502.8"/>
	<path class="st0" d="M275.5,388.3c-10.9,0-19.7-8.8-19.7-19.7c0-10.9,8.8-19.7,19.7-19.7s19.7,8.8,19.7,19.7
		S286.4,388.3,275.5,388.3 M275.5,358.1c-5.8,0-10.5,4.7-10.5,10.5s4.7,10.5,10.5,10.5s10.5-4.7,10.5-10.5S281.3,358.1,275.5,358.1"
		/>
	<path class="st0" d="M215.2,422.1c-10.9,0-19.7-8.8-19.7-19.7c0-10.9,8.8-19.7,19.7-19.7s19.7,8.8,19.7,19.7
		C234.9,413.3,226,422.1,215.2,422.1 M215.2,392c-5.8,0-10.5,4.7-10.5,10.5s4.7,10.5,10.5,10.5s10.5-4.7,10.5-10.5
		S220.9,392,215.2,392"/>
	<path class="st0" d="M236.1,466.1c-2.6,0-4.6-2.1-4.6-4.6v-8.4c0-8.3-6.7-15-15-15H214c-8.3,0-15,6.7-15,15v8.4
		c0,2.6-2.1,4.6-4.6,4.6c-2.6,0-4.6-2.1-4.6-4.6v-8.4c0-13.4,10.9-24.3,24.3-24.3h2.5c13.4,0,24.3,10.9,24.3,24.3v8.4
		C240.7,464,238.6,466.1,236.1,466.1"/>
	<path class="st0" d="M155.4,388.3c-10.9,0-19.7-8.8-19.7-19.7c0-10.9,8.8-19.7,19.7-19.7s19.7,8.8,19.7,19.7
		C175.1,379.5,166.2,388.3,155.4,388.3 M155.4,358.1c-5.8,0-10.5,4.7-10.5,10.5s4.7,10.5,10.5,10.5s10.5-4.7,10.5-10.5
		S161.1,358.1,155.4,358.1"/>
	<path class="st0" d="M73.2,490.8c-2.1,0-3.9-1.4-4.5-3.4c-0.7-2.5,0.8-5,3.3-5.7c2.6-0.7,8.2-5.3,9.2-7.6c3.4-7.4,6.5-15,9.2-22.6
		c0.7-2,1.5-4.1,2.9-6c2.7-3.6,7.2-5.9,12.2-6c3.9-0.2,10.1,1.3,13.8,3.2c2.3,1.2,3.2,3.9,2.1,6.2c-1.1,2.3-3.9,3.2-6.2,2.1
		c-2.3-1.2-7-2.2-9.4-2.2c-2.1,0.1-4,0.9-5,2.2c-0.6,0.9-1.1,2.1-1.6,3.5c-2.9,8-6.1,15.9-9.6,23.5c-2.2,4.8-10,11.3-15.3,12.6
		C73.9,490.8,73.5,490.8,73.2,490.8"/>
	<path class="st0" d="M103.5,464.6c-0.3,1.4-0.3,3.1,0.9,3.9c0.6,0.4,1.4,0.5,2.2,0.5c1.8,0.1,3.9,0,5.1-1.3c0.8-1,1-2.4,0.8-3.6
		s-0.9-2.4-1.5-3.5c-1.4-2.5-2-5.7-4.5-2.7C105,459.7,104,462.3,103.5,464.6"/>
	<path class="st0" d="M342.9,477.3h-21.4c-2.6,0-4.6-2.1-4.6-4.6v-21.2c0-8.5,6.9-15.3,15.3-15.3c8.5,0,15.3,6.9,15.3,15.3v21.2
		C347.5,475.2,345.5,477.3,342.9,477.3 M326.1,468h12.2v-16.6c0-3.4-2.7-6.1-6.1-6.1s-6.1,2.7-6.1,6.1V468z"/>
	<path class="st0" d="M298.8,430.9c-0.8,0-1.6-0.2-2.4-0.7c-2.2-1.3-2.9-4.2-1.6-6.4l32.7-53.7c0.8-1.4,2.3-2.2,3.9-2.2l0,0
		c1.6,0,3.1,0.8,3.9,2.2l34,53.7c1.4,2.2,0.7,5-1.4,6.4c-2.2,1.4-5,0.7-6.4-1.4l-30-47.4l-28.8,47.4
		C301.9,430.1,300.4,430.9,298.8,430.9"/>
	<path class="st0" d="M331.8,378.9c-2.6,0-4.6-2.1-4.6-4.6V350c0-2.6,2.1-4.6,4.6-4.6s4.6,2.1,4.6,4.6v24.2
		C336.4,376.8,334.3,378.9,331.8,378.9"/>
	<path class="st0" d="M341.5,364.6h-20c-2.6,0-4.6-2.1-4.6-4.6c0-2.6,2.1-4.6,4.6-4.6h20c2.6,0,4.6,2.1,4.6,4.6
		S344.1,364.6,341.5,364.6"/>
	<path class="st0" d="M298.8,430.9c-1.8,0-3.5-1.1-4.3-2.8c-1-2.4,0.1-5.1,2.5-6.1l33.3-14c1.1-0.5,2.4-0.5,3.6,0l33.3,14
		c2.4,1,3.5,3.7,2.5,6.1s-3.7,3.5-6.1,2.5l-31.5-13.3l-31.5,13.3C300.1,430.8,299.4,430.9,298.8,430.9"/>
	<path class="st0" d="M368.5,479.4c-2.6,0-4.6-2.1-4.6-4.6V323.2c0-2.6,2.1-4.6,4.6-4.6h34.4c2.6,0,4.6,2.1,4.6,4.6
		c0,2.6-2.1,4.6-4.6,4.6h-29.7v146.9C373.1,477.3,371.1,479.4,368.5,479.4"/>
	<path class="st0" d="M402.9,350.9H386c-2.6,0-4.6-2.1-4.6-4.6c0-2.6,2.1-4.6,4.6-4.6h16.8c2.6,0,4.6,2.1,4.6,4.6
		C407.5,348.8,405.4,350.9,402.9,350.9"/>
	<path class="st0" d="M407.6,385.4H386c-2.6,0-4.6-2.1-4.6-4.6c0-2.6,2.1-4.6,4.6-4.6h21.6c2.6,0,4.6,2.1,4.6,4.6
		S410.1,385.4,407.6,385.4"/>
	<path class="st0" d="M407.6,419.9H386c-2.6,0-4.6-2.1-4.6-4.6c0-2.6,2.1-4.6,4.6-4.6h21.6c2.6,0,4.6,2.1,4.6,4.6
		S410.1,419.9,407.6,419.9"/>
	<path class="st0" d="M298.3,512.6c-2.6,0-4.6-2.1-4.6-4.6v-88.4c0-8.3-6.7-15-15-15h-2.5c-8.3,0-15,6.7-15,15V469
		c0,2.6-2.1,4.6-4.6,4.6c-2.6,0-4.6-2.1-4.6-4.6v-49.4c0-13.4,10.9-24.3,24.3-24.3h2.5c13.4,0,24.3,10.9,24.3,24.3V508
		C303,510.6,300.9,512.6,298.3,512.6"/>
	<path class="st0" d="M131.6,512.6c-2.6,0-4.6-2.1-4.6-4.6v-88.4c0-13.4,10.9-24.3,24.3-24.3h2.5c13.4,0,24.3,10.9,24.3,24.3v48.2
		c0,2.6-2.1,4.6-4.6,4.6c-2.6,0-4.6-2.1-4.6-4.6v-48.2c0-8.3-6.7-15-15-15h-2.5c-8.3,0-15,6.7-15,15V508
		C136.3,510.6,134.2,512.6,131.6,512.6"/>
	<path class="st0" d="M214.9,105.6c-2.6,0-4.6-2.1-4.6-4.6V63.6c0-2.6,2.1-4.6,4.6-4.6c2.6,0,4.6,2.1,4.6,4.6V101
		C219.5,103.6,217.4,105.6,214.9,105.6"/>
	<path class="st0" d="M214.9,105.6c-1.2,0-2.3-0.4-3.2-1.3c-1.8-1.8-1.9-4.7-0.1-6.5l18.2-18.9c1.8-1.8,4.7-1.9,6.5-0.1
		s1.9,4.7,0.1,6.5l-18.2,18.9C217.3,105.2,216.1,105.6,214.9,105.6"/>
	<path class="st0" d="M214.9,105.6c-1.3,0-2.5-0.5-3.4-1.5l-17.2-18.9c-1.7-1.9-1.6-4.8,0.3-6.5c1.9-1.7,4.8-1.6,6.5,0.3l17.2,18.9
		c1.7,1.9,1.6,4.8-0.3,6.5C217.1,105.2,216,105.6,214.9,105.6"/>
	<path class="st0" d="M214.9,68.2c-1.2,0-2.4-0.5-3.3-1.4c-10-10-14.5-20.1-13.4-30c1.5-14,13.7-21.9,14.2-22.2
		c1.8-1.2,4.2-0.9,5.8,0.6c10.3,10.3,14.8,20.5,13.6,30.5c-1.7,13.9-14,21.5-14.5,21.8C216.5,68,215.7,68.2,214.9,68.2 M214.4,24.8
		c-2.7,2.6-6.4,7.1-7.1,13.1c-0.6,6.1,2.1,12.6,8,19.4c2.7-2.5,6.5-6.9,7.2-12.8C223.3,38.5,220.5,31.8,214.4,24.8"/>
	<path class="st0" d="M190.1,87.3c-10.1,0-18.1-2.8-23.8-8.3c-10.1-9.7-9-24.2-8.9-24.8c0.2-2.2,1.9-3.9,4-4.2
		c14.4-1.8,25.3,0.8,32.5,7.9c9.9,9.8,8.4,24.2,8.4,24.8c-0.2,2.1-1.9,3.8-4,4.1C195.4,87.1,192.7,87.3,190.1,87.3 M166.8,58.7
		c0.4,3.7,1.7,9.5,6,13.6c4.4,4.2,11.3,6.1,20.3,5.6c-0.3-3.7-1.5-9.4-5.7-13.5C183,60.1,176.1,58.2,166.8,58.7"/>
	<path class="st0" d="M240.9,87.3c-2.7,0-5.5-0.2-8.4-0.6c-2.2-0.3-3.8-2-4-4.2c-0.1-0.6-1.2-15.1,8.9-24.8c7.2-6.9,18-9.5,32-7.8
		c2.1,0.3,3.8,2,4,4.1c0.1,0.6,1.6,15-8.4,24.8C259.3,84.4,251.2,87.3,240.9,87.3 M237.8,77.9c9.3,0.6,16.3-1.3,20.7-5.7
		c4.2-4.1,5.3-9.8,5.6-13.5c-9-0.5-15.8,1.3-20.3,5.6C239.5,68.4,238.2,74.2,237.8,77.9"/>
	<path class="st0" d="M199.3,278.6c-19.3-15.8-38.7-31.9-59.8-45.4c-11.4-7.3-24.1-14.8-38.1-14.2c-11.6,0.5-22.9,7-32.9,12.4
		c-10.9,6-21.2,13.2-31.4,20.2c-4.9,3.4-0.2,11.4,4.7,8c8.8-6.1,17.7-12.1,26.9-17.6c4.2-2.5,8.5-4.6,12.8-6.8
		c5.1-2.6,10.3-5.3,15.9-6.5c12.9-2.8,25.2,4.7,35.7,11.3c10.4,6.5,20.3,13.8,30,21.3c10.1,7.8,19.9,15.8,29.8,23.8
		C197.3,288.9,203.9,282.4,199.3,278.6"/>
	<path class="st0" d="M399.1,295.1c-19.5-12-38-25.6-56.6-38.8c-9-6.3-18.1-12.5-27.5-18.2c-10.8-6.5-22.8-15.2-36.1-12.8
		c-11.4,2.1-22.1,8.1-31.6,14.5c-12.2,8.1-23.7,17.3-35.6,25.8c-11.7,8.5-24.1,16.2-36.2,24.1c-7.6,4.9-15.2,9.8-22.9,14.6
		c-3,1.9-6.1,3.8-9.2,5.5c-1.1,0.6-2.2,1.2-3.3,1.8c-0.4,0.2-0.7,0.4-1.1,0.5c-0.6,0.3,1.1-0.4,0.1-0.1c-5.8,1.5-3.3,10.5,2.5,8.9
		c4.2-1.1,8.3-4.2,11.9-6.4c6.6-4,13-8.1,19.5-12.3c9.8-6.3,19.5-12.7,29.2-19c12-7.8,23.2-16.5,34.7-25
		c10.3-7.6,20.9-15.6,32.9-20.6c4.4-1.8,9.4-3.9,14.3-3.8c7,0.1,13.5,4.5,19.4,8c10,5.9,19.8,12.1,29.4,18.7
		c20.4,14.2,40.5,29.2,61.7,42.3C399.5,306.2,404.2,298.2,399.1,295.1"/>
	<path class="st0" d="M126,525.8c-0.6,0-1.2-0.1-1.8-0.4c-2.4-1-3.5-3.7-2.5-6.1c15.9-38,52.7-62.6,93.9-62.6
		c41,0,77.7,24.4,93.7,62.1c1,2.4-0.1,5.1-2.5,6.1s-5.1-0.1-6.1-2.5c-14.5-34.3-47.9-56.4-85.2-56.4c-37.4,0-70.9,22.3-85.3,56.9
		C129.5,524.7,127.8,525.8,126,525.8"/>
	<path class="st0" d="M215,565.9c-0.4,0-0.9-0.1-1.3-0.2C139.4,543.9,44,489,9.9,420c-0.4-0.8-0.6-1.8-0.4-2.7l33.9-245.7
		c0.3-2.4,2.5-4.2,4.9-4c56.1,4.4,114.9,5.3,163.7-34.9c1.7-1.4,4.2-1.4,5.9,0c48.8,40.2,107.6,39.3,163.7,34.9
		c2.4-0.2,4.6,1.6,4.9,4l33.9,245.7c0.1,0.9,0,1.9-0.4,2.7c-34,68.9-129.4,123.9-203.7,145.7C215.9,565.9,215.4,565.9,215,565.9
		 M18.8,417.2C52,482.6,143.3,535,215,556.5c71.7-21.5,163-73.9,196.2-139.3l-33.1-240c-55.6,4.2-113.5,4.1-163.1-34.9
		c-49.5,39-107.5,39.1-163.1,34.9L18.8,417.2z"/>
	<path class="st0" d="M340,151.3c-45.4,0-88.3-15.2-125.1-44.6c-41.2,32.8-90,48-141.3,43.9c-0.3,0-12.7-0.5-23.1-1.8
		c-2.5-0.3-4.3-2.7-4-5.2s2.7-4.3,5.2-4c10,1.3,22.3,1.8,22.4,1.8c50.3,3.9,97.9-11.4,137.8-44.2c1.7-1.4,4.2-1.4,5.9,0
		c39.9,32.9,87.4,48.2,137.6,44.2c0.3,0,16.4-1,23.9-1.8c2.5-0.3,4.8,1.6,5.1,4.1c0.3,2.5-1.6,4.8-4.1,5.1
		c-7.8,0.8-23.6,1.8-24.3,1.8C350.7,151.1,345.3,151.3,340,151.3"/>
</g>
</svg>
